<svg width="52" height="52" viewBox="0 0 52 52" fill="none" xmlns="http://www.w3.org/2000/svg">
<g clip-path="url(#clip0)">
<path d="M19.804 38.2815C19.804 42.2082 19.8073 46.1316 19.7973 50.0583C19.794 50.9811 19.9864 52.02 18.4802 52.0001C17.0734 51.9802 17.2891 51.0076 17.2526 50.1446C17.2459 49.9786 17.2293 49.8093 17.2526 49.6467C17.8033 45.803 16.8644 43.0048 13.2646 40.6149C9.5652 38.1586 7.80013 34.046 6.8446 29.4986C4.70793 19.3117 11.7914 9.85838 20.1457 7.26269C27.5544 4.95911 35.5436 7.21291 40.7891 13.2341C44.16 17.1077 45.8288 21.7149 45.5568 26.7469C45.1819 33.6444 41.9437 39.1179 36.0015 42.7924C35.046 43.3832 34.6943 43.9774 34.7208 45.013C34.764 46.6693 34.7573 48.3289 34.7208 49.9886C34.7009 50.8649 35.036 51.9768 33.4932 51.9968C31.9869 52.0167 32.186 50.9645 32.186 50.0483C32.1761 43.8579 32.2059 37.6641 32.1661 31.4736C32.1528 29.2132 32.395 26.9428 31.9836 24.6956C31.5424 22.2924 30.0527 20.812 27.7766 20.1216C25.1921 19.3416 23.0023 20.0586 21.2207 22.0667C20.1357 23.2882 19.8106 24.7686 19.8073 26.342C19.7973 30.3218 19.804 34.3016 19.804 38.2815ZM25.8822 9.16465C22.3653 8.90574 19.1205 10.1306 16.161 12.1952C12.3687 14.8473 10.0396 18.5815 9.28982 23.0492C8.77556 26.1163 8.93813 29.3393 10.2188 32.3167C11.4796 35.2443 13.3309 37.7404 15.9553 39.6025C16.2804 39.8316 16.7018 40.2896 17.1033 39.8216C17.4052 39.4731 17.3123 38.932 17.0203 38.5835C16.5326 37.9993 15.9785 37.4649 15.4211 36.9438C9.80408 31.6927 9.40595 22.6078 13.9348 16.633C19.3361 9.50322 30.3081 8.95221 36.4295 14.8672C40.6398 18.9366 42.2722 25.7113 40.1852 31.3906C39.1932 34.0925 37.468 36.1206 35.4474 38.0026C34.8701 38.5404 34.389 39.254 34.9464 39.8415C35.4408 40.3626 36.0214 39.6158 36.4693 39.2673C41.7513 35.1912 44.0372 28.3701 42.2257 21.2601C40.6166 14.9568 33.6857 8.73646 25.8822 9.16465ZM24.8802 15.551C24.8802 13.6424 24.8072 13.4366 23.9446 13.5627C22.0767 13.8415 20.3481 14.5153 18.8119 15.6439C18.4005 15.946 18.2413 16.2181 18.593 16.726C19.6248 18.2197 20.7462 18.6014 22.4184 17.9342C22.7734 17.7915 23.1184 17.5757 23.4867 17.5127C24.7508 17.3002 25.0892 16.5268 24.8802 15.551ZM27.1031 15.3485C27.1662 15.8763 26.8576 16.6795 27.4316 16.9982C28.6227 17.6587 29.8835 18.3558 31.1907 18.5815C31.9438 18.7109 32.4514 17.4927 33.1283 16.955C33.9644 16.2912 33.5729 15.8364 32.9259 15.4481C31.7016 14.7112 30.4574 14.034 29.0142 13.7652C27.2027 13.4299 27.1164 13.4631 27.1031 15.3485ZM15.6069 24.6989C16.7881 25.0972 17.3421 24.3471 17.6971 23.2185C17.8929 22.5945 18.1384 21.9738 18.4702 21.4128C18.792 20.8685 18.6394 20.5697 18.2579 20.1283C16.2008 17.7649 16.1809 17.7649 14.658 20.4834C14.2466 21.2203 13.9878 21.9871 13.8286 22.7936C13.4504 24.6989 13.4703 24.7089 15.6069 24.6989ZM36.3864 24.6989C38.5197 24.7122 38.5164 24.7089 38.1614 22.797C37.8926 21.3597 37.2224 20.1083 36.3996 18.9267C36.1541 18.5748 35.8754 18.0736 35.3678 18.5217C34.6677 19.1358 33.9212 19.7465 33.4003 20.5C32.9358 21.1738 33.8516 21.6385 34.0108 22.2526C34.0938 22.5713 34.2099 22.8799 34.3094 23.1953C34.6478 24.294 35.1621 25.1304 36.3864 24.6989ZM17.236 35.1115C17.236 32.5557 17.3488 30.3716 17.1995 28.2107C17.0767 26.425 15.5472 27.2448 14.6016 27.1486C13.5366 27.039 13.5698 27.7593 13.7025 28.5792C14.1073 31.0321 15.2785 33.0436 17.236 35.1115ZM34.7507 35.1613C36.6883 33.0038 37.896 31.0421 38.2676 28.619C38.387 27.839 38.533 27.0523 37.4248 27.1519C36.4759 27.2349 34.9332 26.4117 34.7905 28.1643C34.6147 30.3351 34.7507 32.5291 34.7507 35.1613Z" fill="#E42B27"/>
<path d="M30.5967 25.9901C30.61 28.2638 28.2809 30.5873 25.9916 30.5873C23.709 30.5873 21.3766 28.2506 21.3865 25.9802C21.3998 23.7363 23.772 21.3597 25.9983 21.3663C28.2511 21.373 30.5835 23.7197 30.5967 25.9901ZM26.1144 24.1048C24.92 24.201 24.1801 24.8018 24.1602 25.9569C24.1403 27.112 24.8603 27.8124 26.0082 27.839C27.1031 27.8655 27.7633 27.1685 27.8297 26.1129C27.9027 24.9479 27.1894 24.3238 26.1144 24.1048Z" fill="#E42B27"/>
<path d="M25.9253 4.55152e-05C28.5497 -0.0231895 30.2816 2.37334 29.4886 4.89268C29.2398 5.68599 28.7123 5.87519 27.9757 5.84863C27.2193 5.82208 26.8742 5.447 26.8842 4.7068C26.8875 4.4313 26.8676 4.1558 26.8643 3.8803C26.8576 3.32929 26.7083 2.87455 26.0614 2.84136C25.3281 2.80485 25.1357 3.27287 25.1158 3.90685C25.0826 4.81302 25.3281 5.90506 23.8152 5.85859C23.1118 5.83536 22.6971 5.55654 22.4881 4.86944C21.7382 2.40985 23.4104 0.0232805 25.9253 4.55152e-05Z" fill="#E42B27"/>
<path d="M3.90835 29.4554C1.30718 29.4355 -0.146015 28.0447 0.00992174 25.7113C0.159223 23.5006 2.21295 22.0335 4.60509 22.3887C5.46772 22.5181 5.85258 22.9463 5.85922 23.8126C5.86585 24.7122 5.47435 25.147 4.56859 25.1105C4.34961 25.1005 4.12732 25.1237 3.90835 25.1237C3.26801 25.1237 2.8201 25.3461 2.86324 26.0764C2.90305 26.727 3.36091 26.8199 3.90171 26.8797C4.60177 26.956 5.51748 26.5643 5.81277 27.673C6.15118 28.9409 5.59379 29.4687 3.90835 29.4554Z" fill="#E42B27"/>
<path d="M48.1944 29.5085C47.345 29.3724 46.5189 29.7143 46.1838 28.7584C45.8023 27.6763 46.3364 26.9859 47.6536 26.883C48.2906 26.8332 49.1035 27.0124 49.1134 26.0067C49.1234 24.9943 48.3138 25.1138 47.6735 25.1271C46.6948 25.1503 46.081 24.8881 46.1241 23.7429C46.1672 22.611 46.864 22.3754 47.783 22.3754C49.3955 22.3787 50.8785 22.6907 51.6184 24.3537C52.2521 25.7743 52.1094 27.102 51.1307 28.38C50.2946 29.4687 49.14 29.3791 48.1944 29.5085Z" fill="#E42B27"/>
<path d="M41.9636 6.35315C43.3172 6.66516 44.495 7.42528 45.2581 8.95215C45.9383 10.3164 45.4008 11.269 44.6012 12.2316C44.2528 12.6532 43.8116 12.995 43.44 13.4C42.9357 13.951 42.4546 14.0108 41.9005 13.4597C41.3564 12.9154 40.9914 12.4474 41.5289 11.6109C41.9437 10.9636 43.44 10.5222 42.4977 9.53635C41.4659 8.45758 40.9649 10.011 40.2715 10.4359C39.7871 10.7313 39.4321 10.9504 38.9808 10.5056C38.5562 10.0874 38.0286 9.71891 38.2907 8.97207C38.6093 8.06258 40.7891 6.39298 41.9636 6.35315Z" fill="#E42B27"/>
<path d="M10.1889 45.6568C8.65939 45.3316 7.47162 44.5681 6.71516 43.028C6.04164 41.6571 6.60899 40.7078 7.40526 39.7419C7.72045 39.3602 8.10864 39.0415 8.44374 38.6764C8.94804 38.1254 9.42581 37.8366 10.0927 38.5038C10.7198 39.1278 11.0648 39.7153 10.3349 40.4721C10.2586 40.5518 10.2088 40.6547 10.1325 40.7343C9.67464 41.2223 8.71911 41.6272 9.48553 42.4438C10.3249 43.3367 10.806 42.3276 11.3535 41.8662C11.944 41.3683 12.4251 40.7808 13.2645 41.6803C14.0774 42.55 13.7522 43.1607 13.1152 43.8014C12.3057 44.6179 11.5061 45.4776 10.1889 45.6568Z" fill="#E42B27"/>
<path d="M6.38347 10.3728C6.34034 8.70319 8.08551 6.73485 9.75768 6.3996C10.9156 6.16725 13.2447 7.70408 13.6893 8.96541C13.9547 9.71225 13.4305 10.084 13.0091 10.4989C12.5645 10.9404 12.2062 10.7412 11.7185 10.4425C11.0251 10.0209 10.5374 8.46752 9.49558 9.52969C8.54005 10.5022 10.0098 10.9802 10.4279 11.6175C10.9753 12.4507 10.6236 12.912 10.0762 13.4564C9.52212 14.0074 9.06758 13.9145 8.53341 13.4033C7.5812 12.4938 6.6124 11.6076 6.38347 10.3728Z" fill="#E42B27"/>
<path d="M41.9901 45.6271C40.8521 45.6536 38.5197 43.9143 38.2642 42.9683C38.0652 42.2281 38.606 41.8597 39.0306 41.4448C39.5084 40.9801 39.8601 41.3153 40.3146 41.5941C40.9782 41.9991 41.4228 43.4463 42.4214 42.5235C43.4997 41.5278 42.0399 41.0664 41.5953 40.4656C41.0346 39.7021 41.2303 39.2043 41.8176 38.6068C42.4148 38.0027 42.8328 38.0558 43.4732 38.6001C46.436 41.1162 46.0876 44.1434 42.6371 45.4445C42.3883 45.5408 42.1162 45.5906 41.9901 45.6271Z" fill="#E42B27"/>
</g>
<defs>
<clipPath id="clip0">
<rect width="52" height="52" fill="white"/>
</clipPath>
</defs>
</svg>
