<svg width="55" height="52" viewBox="0 0 55 52" fill="none" xmlns="http://www.w3.org/2000/svg">
<g clip-path="url(#clip0)">
<path d="M50.902 43.6475C50.7766 44.3678 50.0794 44.5258 49.4966 44.8491C48.9138 45.1725 48.5192 44.9741 48.3089 44.467C47.5565 42.6554 46.1069 42.2475 44.3179 42.2916C43.2925 42.3173 42.7208 41.5273 42.2081 40.7335C40.8802 38.6867 39.508 36.6694 38.206 34.6079C37.767 33.9134 37.1437 33.4761 36.5461 32.9616C35.624 32.1679 35.0928 32.653 34.6428 33.3842C33.1416 35.8132 31.6699 38.2642 30.2055 40.7188C29.8071 41.3839 30.0617 41.9278 30.4822 42.5525C31.9834 44.7793 33.3814 47.0797 34.8568 49.3285C35.4691 50.2619 35.6941 50.8682 34.4769 51.6619C33.1305 52.5402 32.8059 51.5039 32.3744 50.8499C29.6264 46.6791 26.9079 42.4827 24.2559 38.2495C23.4223 36.9192 22.5591 35.9197 20.7997 36.0961C19.4681 36.2321 18.7009 35.3281 18.0148 34.336C16.8419 32.6309 15.5656 30.992 14.4591 29.2502C13.666 28.0009 13.0132 28.4161 12.3566 29.2466C11.8697 29.8602 11.5341 30.5952 11.0656 31.2272C10.7447 31.6608 10.3242 32.337 9.92585 32.3553C6.88649 32.4729 6.53608 35.0966 5.42213 36.9964C4.58852 38.4148 3.83237 39.8773 2.99875 41.2958C2.51555 42.1225 1.98809 42.8391 0.807754 42.1556C-0.335697 41.4942 -0.0811868 40.7813 0.442588 39.8773C2.1135 36.978 3.76228 34.064 5.35574 31.1243C5.70246 30.4849 6.14509 29.8455 6.76477 29.7831C8.50207 29.6067 9.43897 28.6072 10.2726 27.2108C10.9882 26.0092 12.3972 25.6123 13.6328 25.1089C14.437 24.7819 15.0419 25.289 15.5066 25.921C17.0558 28.0303 18.5903 30.1505 20.1579 32.2488C20.63 32.8808 21.1243 33.6157 22.0723 33.443C24.2965 33.0425 25.3772 34.4058 26.4247 36.0153C28.2248 38.7749 27.8116 38.6427 29.4715 35.9969C30.7662 33.9354 31.9834 31.8225 33.2154 29.7206C34.1228 28.1699 34.7203 28.1846 36.3211 28.9379C39.733 30.5474 41.2785 33.6782 43.038 36.6436C44.0154 38.2936 44.9671 39.6936 47.2724 39.3996C48.3569 39.2637 50.9831 42.49 50.902 43.6475Z" fill="#E42B27"/>
<path d="M10.4792 3.69667C14.0939 3.68932 16.6796 6.17706 16.6907 9.66798C16.7017 13.1699 13.8763 16.106 10.5419 16.0545C7.29593 16.0068 4.23075 12.8429 4.27501 9.58714C4.31558 6.35345 7.10782 3.70402 10.4792 3.69667ZM7.42134 9.73413C7.42134 11.6964 8.65332 12.9054 10.6451 12.898C12.4267 12.8907 13.7915 11.5678 13.8431 9.79292C13.8948 8.08421 12.364 6.5188 10.6046 6.48206C8.74553 6.44164 7.42503 7.79024 7.42134 9.73413Z" fill="#E42B27"/>
<path d="M44.3217 19.1339C45.6569 19.2037 46.7672 19.8799 47.7926 20.6332C48.5155 21.166 48.936 21.1329 49.6774 20.5964C50.7951 19.788 52.0086 19.0127 53.5283 19.1339C54.1516 19.1817 54.8008 19.156 54.941 19.9717C55.0738 20.7397 55.0553 21.6106 54.1627 21.7797C51.7061 22.2427 50.3119 23.6684 49.7106 26.0276C49.6074 26.4355 49.1205 26.6559 48.652 26.5935C48.0434 26.5163 47.5897 26.1084 47.5086 25.5499C47.195 23.4075 45.7786 22.4705 43.8458 22.0148C42.8315 21.776 42.1934 21.2101 42.4147 20.0599C42.6323 18.9134 43.5544 19.1927 44.3217 19.1339Z" fill="#E42B27"/>
<path d="M40.6442 13.4015C40.6294 14.1364 40.4007 14.8346 39.5929 14.886C38.206 14.9742 37.5753 15.8084 37.0515 16.9328C36.7601 17.5575 36.5167 18.3623 35.5245 18.2483C34.6466 18.1454 34.3294 17.5796 34.1191 16.8005C33.8462 15.7937 33.1859 15.0845 32.0867 14.9852C30.556 14.8493 30.5154 13.7947 30.7367 12.729C31.006 11.4429 32.0683 11.6854 32.7617 12.1374C34.7167 13.4015 36.5056 13.0891 38.4679 12.1264C39.9138 11.4135 40.6958 11.9904 40.6442 13.4015Z" fill="#E42B27"/>
<path d="M40.0613 1.43673C40.0872 0.304941 40.5372 -0.16174 41.5847 0.110185C41.6437 0.124883 41.7064 0.132232 41.7618 0.157955C44.0118 1.3118 46.2507 1.30445 48.5266 0.180003C49.0909 -0.0992707 49.8028 -0.147041 49.9688 0.720177C50.1163 1.49185 50.2602 2.44359 49.3012 2.75226C47.8294 3.22629 46.7192 3.81056 46.3356 5.53765C46.1069 6.56655 44.5208 6.43426 43.9306 5.31349C43.2446 4.00532 42.4478 2.97641 40.8507 2.76696C40.0503 2.66407 40.1056 1.92546 40.0613 1.43673Z" fill="#E42B27"/>
</g>
<defs>
<clipPath id="clip0">
<rect width="55" height="52" fill="white"/>
</clipPath>
</defs>
</svg>
