<svg width="57" height="62" viewBox="0 0 57 62" fill="none" xmlns="http://www.w3.org/2000/svg">
<g clip-path="url(#clip0)">
<path d="M49.1488 32.7599C49.42 28.7887 48.7062 23.9028 49.4957 19.0525C49.5077 18.9892 49.5276 18.91 49.5037 18.8585C49.0571 17.8489 49.6871 15.9761 48.1998 15.9207C46.3297 15.8494 47.1312 17.6786 47.0714 18.7041C46.9478 20.7432 47.0235 22.7902 47.0355 24.8332C47.0395 26.0013 46.7364 27.0307 45.3847 27.0941C43.9134 27.1614 43.9851 25.9656 43.9811 24.9797C43.9612 22.0102 44.021 19.0446 43.9532 16.079C43.9213 14.6933 44.6032 13.9687 45.8153 13.6717C47.3106 13.3035 48.8498 13.2639 50.3371 13.6955C51.8483 14.135 52.6219 15.014 51.7725 16.6532C51.5971 16.9897 51.3897 17.453 51.4894 17.7697C53.1203 23.1267 51.9081 28.6026 52.1832 34.0151C52.3826 37.9626 52.2271 41.9259 52.2191 45.8853C52.2072 52.347 48.0802 58.0248 41.9316 60.048C41.4332 60.2103 40.9148 60.3964 40.3965 60.4162C35.7631 60.5904 31.1018 60.044 26.5402 61.608C24.3551 62.3563 21.9348 61.8852 19.6181 61.6436C18.4777 61.5249 17.6004 60.9745 16.9106 60.1549C14.0197 56.7142 15.7622 50.9454 20.1165 50.0743C22.5528 49.5873 25.1287 49.5675 27.6049 50.2881C28.0475 50.4148 28.5818 50.5138 28.8768 50.8147C31.7677 53.7922 35.2567 52.8063 38.5543 52.1015C41.3255 51.5116 43.084 49.5992 43.6263 46.7088C43.8256 45.6477 44.2682 44.5035 45.6758 44.8479C47.1152 45.2003 46.8162 46.3842 46.569 47.4413C45.3129 52.8063 40.9029 55.6016 35.6833 55.6966C34.6227 55.7164 33.5581 55.7046 32.4974 55.7283C31.8594 55.7442 31.5364 56.0926 31.5324 56.734C31.5285 57.3675 31.8395 57.6407 32.4615 57.7832C38.6699 59.1967 44.8344 56.6904 47.9486 51.2621C48.8896 49.619 49.1488 47.6631 49.1568 45.7348C49.1568 41.7002 49.1488 37.6775 49.1488 32.7599ZM23.5058 58.9711C24.0361 58.9711 24.5664 58.975 25.0968 58.9711C27.573 58.9592 28.3505 58.29 28.4103 56.1243C28.4741 53.8437 27.6407 53.0043 25.1646 52.9251C24.0401 52.8894 22.9077 52.8736 21.7832 52.933C19.319 53.0637 18.6691 53.7961 18.7289 56.2549C18.7807 58.3732 19.4626 58.9552 21.9148 58.975C22.4451 58.975 22.9755 58.9711 23.5058 58.9711Z" fill="#E42B27"/>
<path d="M23.2147 24.6234C28.3944 24.1285 33.566 24.8689 38.7218 25.7756C45.8512 27.0307 49.5755 35.8007 45.5801 42.1239C43.5027 45.4102 40.7793 48.0036 36.748 48.8588C32.8244 49.6942 28.6735 47.7343 27.0506 44.0798C26.6359 43.1494 26.0976 42.3496 25.4517 41.621C23.7451 39.6968 22.5927 39.8353 21.1572 42.0803C20.3837 43.2919 19.8733 44.646 18.9004 45.7586C15.1602 50.0387 10.156 49.9041 6.08881 47.0098C-0.490412 42.3218 -0.753581 38.1764 0.761634 31.3306C1.55513 27.7434 5.06006 26.5793 8.3417 25.7795C13.1944 24.5996 18.1388 24.2195 23.2147 24.6234ZM23.115 27.1138C17.3532 27.2445 11.8466 27.7592 6.51546 29.5251C4.71714 30.123 3.50896 31.4375 3.26971 33.1717C2.69154 37.2895 3.13414 41.1538 6.89427 43.9531C10.1958 46.4119 14.1314 47.18 16.9425 43.4067C17.8756 42.1555 18.5654 40.7222 19.5064 39.4394C21.2091 37.1192 25.4955 36.6164 27.2221 39.1029C28.0076 40.2352 28.8569 41.3122 29.5507 42.5119C31.3251 45.5844 34.4911 47.0177 37.1866 45.6754C41.7761 43.3909 44.9501 40.0373 43.7499 33.8171C43.2475 31.2118 41.9635 29.8141 39.603 29.2044C34.1402 27.7988 28.5539 27.292 23.115 27.1138Z" fill="#E42B27"/>
<path d="M37.7966 3.95533C40.8111 4.00284 43.076 6.29928 43.0241 9.25298C42.9723 12.1631 40.5838 14.511 37.697 14.4912C34.7303 14.4714 32.4296 12.175 32.4216 9.22923C32.4097 6.16466 34.7064 3.90781 37.7966 3.95533ZM39.9977 9.08273C39.7744 7.80385 39.0726 6.98821 37.6531 7.01197C36.2615 7.03573 35.4281 7.69694 35.4879 9.17379C35.5477 10.6586 36.3532 11.4861 37.8485 11.4306C39.252 11.3792 39.906 10.4844 39.9977 9.08273Z" fill="#E42B27"/>
<path d="M57 5.58669C57.016 8.33846 54.7232 10.5201 51.7925 10.5518C49.3761 10.5755 46.2779 7.701 46.4294 5.33328C46.6128 2.48649 48.6065 0.0752216 51.9201 -6.68934e-06C54.7551 -0.0633568 56.9123 2.35979 57 5.58669ZM52.0437 7.91084C54.0733 7.79998 54.2408 6.31125 54.2846 4.9611C54.3564 2.82699 52.4504 3.21897 51.2661 3.08039C49.6592 2.89826 49.5436 4.44242 49.5954 5.42831C49.6712 6.81409 50.5484 7.82374 52.0437 7.91084Z" fill="#E42B27"/>
<path d="M5.2953 36.0145C5.29131 32.8232 6.57924 31.3266 9.68543 30.3803C11.42 29.8537 13.1864 29.7943 14.9289 29.4815C16.0374 29.2836 16.6036 29.9527 16.8907 30.7366C17.2615 31.7502 16.3763 32.162 15.6027 32.3362C14.1314 32.6649 12.6401 32.946 11.1408 33.0925C9.46214 33.2548 8.39351 33.9002 8.3018 35.7136C8.27788 36.165 8.03066 36.6005 8.00275 37.0519C7.95091 37.9665 7.80736 38.9128 6.67494 38.8375C5.53853 38.7623 5.26738 37.8121 5.2953 36.8024C5.30726 36.5411 5.29928 36.2798 5.2953 36.0145Z" fill="#E42B27"/>
</g>
<defs>
<clipPath id="clip0">
<rect width="57" height="62" fill="white"/>
</clipPath>
</defs>
</svg>
