<svg width="61" height="56" viewBox="0 0 61 56" fill="none" xmlns="http://www.w3.org/2000/svg">
<g clip-path="url(#clip0)">
<path d="M21.4 27.4C21.3 27.4 21.2 27.4 21.1 27.4C20.6 27.3 20.3 26.9 20.2 26.4C20.2 26.2 19.5 22.1 21.2 18.7C24.3 12.5 32.7 10.8 33.1 10.8C33.8 10.7 34.4 11.1 34.6 11.8C34.7 12.5 34.3 13.1 33.6 13.3C33.5 13.3 26.1 14.8 23.5 19.9C23 20.9 22.7 22.1 22.6 23.1C24.2 21.5 26.6 19.5 29.2 18.4C31.9 17.2 34.4 16.7 34.5 16.7C35.2 16.6 35.8 17 36 17.7C36.1 18.4 35.7 19 35 19.2C35 19.2 32.7 19.7 30.2 20.7C26.1 22.4 22.5 27 22.5 27.1C22.1 27.2 21.7 27.4 21.4 27.4Z" fill="#E42B27"/>
<path d="M38.7 12.6C38.1 12.6 37.5 12.1 37.5 11.5C37.5 11.3 36.7 6.20001 31.6 5.10001C29.5 4.60001 27.4 5.10001 25.8 5.80001C27.4 6.30001 29.5 7.20001 31.4 8.80001C31.9 9.20001 32 10 31.6 10.6C31.2 11.1 30.4 11.2 29.8 10.8C26.3 8.00001 22.2 7.60001 22.2 7.60001C21.7 7.60001 21.2 7.20001 21.1 6.70001C21 6.20001 21.1 5.70001 21.5 5.40001C21.7 5.20001 26.7 1.50001 32.1 2.80001C38.9 4.40001 39.9 11.1 39.9 11.4C40 12.1 39.5 12.7 38.8 12.8C38.8 12.6 38.7 12.6 38.7 12.6Z" fill="#E42B27"/>
<path d="M43.4 13.4C43.2 13.4 43 13.4 42.8 13.3C42.2 13 41.9 12.2 42.3 11.6C42.3 11.5 43.1 9.99996 45.7 6.69996C47.2 4.69996 49 3.39996 50.6 2.59996C50.1 2.59996 49.5 2.59996 48.9 2.69996C43.5 3.39996 41.3 6.39996 41.2 6.49996C40.8 7.09996 40 7.19996 39.5 6.79996C38.8 6.29996 38.6 5.59996 39 4.99996C39.1 4.79996 41.9 0.899963 48.4 0.0999626C52.5 -0.400037 55.2 0.999963 55.3 0.999963C55.8 1.29996 56 1.79996 56 2.29996C55.9 2.79996 55.5 3.19996 55 3.29996C55 3.29996 50.5 4.29996 47.6 8.09996C45.2 11.2 44.5 12.6 44.5 12.6C44.3 13.1 43.8 13.4 43.4 13.4Z" fill="#E42B27"/>
<path d="M59.3 21.1C58.9 21.1 58.5 20.9 58.3 20.5C58.2 20.4 56.4 17.8 52.7 17.3C49.2 17 47 17.6 47 17.6C46.3 17.8 45.6 17.4 45.4 16.8C45.2 16.1 45.6 15.4 46.2 15.2C46.3 15.2 48.8 14.4 52.9 14.9C54.3 15.1 55.4 15.5 56.4 16C56.3 15.9 56.3 15.8 56.2 15.7C54.1 12.2 48.5 11.5 48.5 11.5C47.8 11.4 47.3 10.8 47.4 10.1C47.5 9.40005 48.1 8.90005 48.8 9.00005C49.1 9.00005 55.7 9.80005 58.4 14.4C60.2 17.4 60.4 19.6 60.4 19.7C60.5 20.3 60.1 20.8 59.6 21C59.6 21.1 59.4 21.1 59.3 21.1Z" fill="#E42B27"/>
<path d="M35.5 36.9C34.7 36.9 34 36 32 33C29.4 29.1 29 24.3 29 24.1C28.9 23.4 29.5 22.8 30.1 22.8C30.8 22.8 31.4 23.3 31.4 23.9C31.4 23.9 31.8 28.2 34 31.6C34 29.6 34.2 27 34.7 24.6C35.4 21.7 36.7 18.9 36.7 18.7C37 18.1 37.7 17.8 38.4 18.1C39 18.4 39.3 19.1 39 19.8C39 19.8 37.7 22.6 37.1 25.2C36 29.9 36.6 35.4 36.6 35.4C36.7 36 36.3 36.5 35.8 36.7C35.8 36.8 35.6 36.9 35.5 36.9Z" fill="#E42B27"/>
<path d="M55.4 55.3C55.3 55.3 55.3 55.3 55.2 55.3C54.5 55.2 54 54.6 54.1 53.9C54.1 53.8 55.6 41.7 51.9 31.2C48.2 21 38.1 16.1 38 16C37.4 15.7 37.1 15 37.4 14.3C37.7 13.7 38.4 13.4 39.1 13.7C39.6 13.9 50.3 19.1 54.4 30.3C58.4 41.4 56.8 53.6 56.8 54.1C56.6 54.9 56.1 55.3 55.4 55.3Z" fill="#E42B27"/>
<path d="M46.4 55.2999C46.3 55.2999 46.2 55.2999 46 55.2C45.3 55 45 54.2999 45.2 53.5999C45.2 53.4999 47.7 44.8999 46.3 36.0999C44.9 27.4999 40.3 23.8999 40.3 23.8999C39.8 23.4999 39.6 22.6999 40.1 22.1999C40.5 21.6999 41.3 21.4999 41.8 21.9999C42 22.1999 47.2 26.1999 48.8 35.7999C50.3 45.1999 47.8 54 47.6 54.4C47.4 54.9 46.9 55.2999 46.4 55.2999Z" fill="#E42B27"/>
<path d="M8.10002 19.4C3.80002 19.4 0.400024 15.9 0.400024 11.7C0.400024 7.50002 3.90002 3.90002 8.10002 3.90002C12.3 3.90002 15.9 7.40002 15.9 11.7C15.9 16 12.4 19.4 8.10002 19.4ZM8.10002 6.40002C5.20002 6.40002 2.90002 8.80002 2.90002 11.7C2.90002 14.6 5.30002 16.9 8.10002 16.9C10.9 16.9 13.4 14.5 13.4 11.7C13.4 8.90002 11 6.40002 8.10002 6.40002Z" fill="#E42B27"/>
<path d="M43.8 45.3C42.4 45.3 41.4 44.6 40.5 44C39.7 43.4 39 43 38 43C36.9 43 36.1 43.5 35.1 44.1C34.1 44.7 33.1 45.3 31.8 45.3C30.5 45.3 29.4 44.6 28.4 44C27.5 43.4 26.6 42.9 25.7 42.9C24.8 42.9 24.1 43.4 23.2 43.9C22.1 44.5 20.9 45.3 19.4 45.3C17.8 45.3 16.6 44.5 15.6 43.9C14.7 43.4 14 42.9 13.2 42.9C12.4 42.9 11.8 43.3 11 43.8C9.99999 44.4 8.69999 45.2 6.79999 45.2C3.39999 45.2 0.499991 41.8 0.399991 41.7C-8.79169e-06 41.2 -8.79169e-06 40.4 0.599991 39.9C1.09999 39.5 1.89999 39.5 2.39999 40.1C2.99999 40.8 4.99999 42.7 6.89999 42.7C8.09999 42.7 8.89999 42.2 9.79999 41.7C10.8 41.1 11.9 40.5 13.3 40.5C14.8 40.5 16 41.2 17.1 41.9C18 42.5 18.8 42.9 19.6 42.9C20.5 42.9 21.2 42.4 22.1 41.9C23.2 41.3 24.4 40.5 25.9 40.5C27.5 40.5 28.8 41.3 29.9 42C30.7 42.5 31.4 42.9 32 42.9C32.6 42.9 33.2 42.5 34 42C35.1 41.3 36.4 40.5 38.2 40.5C40 40.5 41.2 41.3 42.1 42C42.9 42.6 43.4 42.9 44 42.9C44.7 42.9 45.3 43.5 45.3 44.2C45.3 44.9 44.5 45.3 43.8 45.3Z" fill="#E42B27"/>
<path d="M43.8 52.7C42.4 52.7 41.4 52 40.5 51.4C39.7 50.8 39 50.4 38 50.4C36.9 50.4 36.1 50.9 35.1 51.5C34.1 52.1 33.1 52.7 31.8 52.7C30.5 52.7 29.4 52 28.4 51.4C27.5 50.8 26.6 50.3 25.7 50.3C24.8 50.3 24.1 50.8 23.2 51.3C22.1 51.9 20.9 52.7 19.4 52.7C17.8 52.7 16.6 51.9 15.6 51.3C14.7 50.8 14 50.3 13.2 50.3C12.4 50.3 11.8 50.7 11 51.2C9.99999 51.8 8.69999 52.6 6.79999 52.6C3.39999 52.6 0.499991 49.2 0.399991 49.1C-8.79169e-06 48.6 -8.79169e-06 47.8 0.599991 47.3C1.09999 46.9 1.89999 46.9 2.39999 47.5C2.79999 48.1 4.79999 50 6.69999 50C7.89999 50 8.69999 49.5 9.59999 49C10.6 48.4 11.7 47.8 13.1 47.8C14.6 47.8 15.8 48.5 16.9 49.2C17.8 49.8 18.6 50.2 19.4 50.2C20.3 50.2 21 49.7 21.9 49.2C23 48.6 24.2 47.8 25.7 47.8C27.3 47.8 28.6 48.6 29.7 49.3C30.5 49.8 31.2 50.2 31.8 50.2C32.4 50.2 33 49.8 33.8 49.3C34.9 48.6 36.2 47.8 38 47.8C39.8 47.8 41 48.6 41.9 49.3C42.7 49.9 43.2 50.2 43.8 50.2C44.5 50.2 45.1 50.8 45.1 51.5C45.1 52.2 44.5 52.7 43.8 52.7Z" fill="#E42B27"/>
</g>
<defs>
<clipPath id="clip0">
<rect width="60.5" height="55.3" fill="white"/>
</clipPath>
</defs>
</svg>
