<svg width="36" height="60" viewBox="0 0 36 60" fill="none" xmlns="http://www.w3.org/2000/svg">
<path fill-rule="evenodd" clip-rule="evenodd" d="M35.6399 58.1001C35.6399 58.0864 35.5758 57.9841 35.4572 57.7948C34.7121 56.6052 31.8143 51.9785 29.1399 44.3001H29.8399C30.5399 44.3001 31.0399 43.8001 31.0399 43.1001C31.0399 42.4001 30.5399 41.9001 29.8399 41.9001H28.3399C28.3399 41.8501 28.3149 41.8001 28.2899 41.7501C28.2649 41.7001 28.2399 41.6501 28.2399 41.6001C27.2399 38.4001 26.4398 34.7001 25.9398 31.2001H27.4398C28.1399 31.2001 28.6399 30.7001 28.6399 30.0001C28.6399 29.3001 28.1399 28.8001 27.4398 28.8001H25.5399C24.8398 23.4001 24.5399 18.5001 24.4398 16.3001H24.8399C25.7399 16.3001 26.4398 15.6001 26.4398 14.7001V9.70012C26.4398 8.80012 25.7399 8.10012 24.8399 8.10012H18.7399V1.20012C18.7399 0.500122 18.2399 0.00012207 17.5399 0.00012207C16.8398 0.00012207 16.3399 0.500122 16.3399 1.20012V8.10012H11.1399C10.2399 8.10012 9.53985 8.80012 9.53985 9.70012V14.8001C9.53985 15.7001 10.2399 16.4001 11.1399 16.4001H11.5399C11.4399 18.5001 11.1399 23.4001 10.4399 28.9001H8.53985C7.83985 28.9001 7.33985 29.4001 7.33985 30.1001C7.33985 30.8001 7.83985 31.3001 8.53985 31.3001H10.0399C9.43985 34.9001 8.73985 38.5001 7.73985 41.7001C7.73985 41.7501 7.71485 41.8001 7.68985 41.8501C7.66485 41.9001 7.63985 41.9501 7.63985 42.0001H6.13985C5.43985 42.0001 4.93985 42.5001 4.93985 43.2001C4.93985 43.9001 5.43985 44.4001 6.13985 44.4001H6.83985C3.73985 53.2001 0.439852 58.1001 0.339852 58.2001C0.0398518 58.6001 0.0398518 59.0001 0.239852 59.4001C0.439852 59.7001 0.939852 60.0001 1.33985 60.0001H10.8399C11.3399 60.0001 11.7399 59.7001 11.9399 59.3001C12.0399 59.1001 13.7399 55.5001 14.2399 54.3001C14.9399 52.6001 15.4399 50.9001 15.7399 49.8001H20.5399C20.7437 50.3607 20.9995 51.155 21.2411 51.9052C21.4735 52.627 21.6927 53.3078 21.8399 53.7001C22.4551 55.4776 23.491 57.3952 24.0849 58.4946C24.3597 59.0033 24.5399 59.3368 24.5399 59.4001C24.7399 59.8001 25.1399 60.0001 25.5399 60.0001H34.7398C35.1399 60.0001 35.6399 59.8001 35.8399 59.4001C35.9398 58.9001 35.9398 58.5001 35.6399 58.1001ZM11.9399 10.5001H24.1399V14.0001H11.9399V10.5001ZM13.9399 16.4001H22.1399C22.2399 18.5001 22.5399 23.3001 23.2399 28.9001H12.8399C13.5399 23.3001 13.8399 18.5001 13.9399 16.4001ZM12.4399 31.2001H23.5399C24.1399 34.8001 24.8399 38.6001 25.8399 41.9001H10.1399C11.1399 38.6001 11.9399 34.8001 12.4399 31.2001ZM26.2399 57.6001C26.1423 57.405 26.0219 57.1717 25.8868 56.9101C25.3296 55.831 24.5228 54.2684 24.0399 52.9001C23.6399 51.8001 22.5399 48.3001 22.5399 48.3001C22.3398 47.8001 21.9398 47.5001 21.4398 47.5001H14.8399C14.3399 47.5001 13.8399 47.9001 13.6399 48.4001C13.6399 48.4001 12.9399 51.0001 11.9399 53.5001C11.6399 54.4001 10.6399 56.6001 10.0399 57.7001H3.53985C4.93985 55.4001 7.23985 50.9001 9.43985 44.4001H26.7399C28.9399 50.8001 31.2399 55.3001 32.6399 57.7001H26.2399V57.6001ZM21.2399 18.9001C21.2399 18.3001 20.6399 17.8001 20.0399 17.8001H16.1399C15.5399 17.8001 14.9399 18.3001 14.9399 18.9001L14.4399 26.6001C14.4399 26.9001 14.5399 27.3001 14.7399 27.5001C14.9399 27.7001 15.2399 27.9001 15.6399 27.9001H20.5399C20.8399 27.9001 21.1399 27.8001 21.4399 27.5001C21.6399 27.3001 21.7399 26.9001 21.7399 26.6001L21.2399 18.9001ZM16.8399 25.5001L17.2399 20.2001H18.9399L19.2399 25.5001H16.8399ZM21.0399 32.7001C21.6399 32.7001 22.1399 33.2001 22.2399 33.8001L22.9399 39.6001C22.9399 39.9001 22.8399 40.2001 22.6399 40.5001C22.4399 40.8001 22.0399 40.9001 21.7399 40.9001H14.3399C14.0399 40.9001 13.6399 40.8001 13.4399 40.5001C13.2399 40.2001 13.1399 39.8001 13.1399 39.5001L13.9399 33.7001C14.0399 33.1001 14.5399 32.7001 15.1399 32.7001H21.0399ZM16.2399 35.1001L15.7399 38.4001H20.4399L20.0399 35.1001H16.2399Z" fill="#E42B27"/>
</svg>
