<svg width="68" height="46" viewBox="0 0 68 46" fill="none" xmlns="http://www.w3.org/2000/svg">
<g clip-path="url(#clip0)">
<path d="M56.2226 3.30862C59.8493 8.04195 62.0785 13.1777 65.0575 17.8633C66.3936 19.964 66.9186 22.2897 67.1299 24.5984C67.4401 28.0154 67.7775 31.4938 66.7993 34.904C66.1551 37.1479 64.1917 38.7268 61.9046 38.7711C61.7342 38.7745 61.5638 38.7848 61.3933 38.7711C59.7845 38.6347 58.871 38.9075 58.0053 40.7729C55.0296 47.1807 46.8287 47.7604 42.6056 42.0995C42.5067 41.9665 42.367 41.8301 42.3363 41.6766C41.7807 38.8939 39.8856 38.6245 37.4519 38.7234C33.1981 38.9007 28.934 38.7984 24.6768 38.7541C23.5383 38.7404 22.8805 38.9792 22.3828 40.183C20.682 44.299 16.7485 46.6282 12.4777 45.8609C9.2532 45.2812 6.86042 43.2999 5.66062 40.1591C5.34704 39.3372 5.04709 38.9178 4.11315 38.6825C1.44087 38.0141 -0.0316106 35.6406 -0.000933945 33.1921C0.114956 23.988 0.0433768 14.7839 0.0467853 5.5798C0.0501939 2.25146 2.23846 0.00755545 5.5345 0.00755545C25.4675 -0.00267511 45.404 0.000735076 65.337 0.00755545C67.4298 0.00755545 67.8423 0.341754 67.9616 2.43561C68.0502 4.01793 67.9616 5.61049 67.8934 7.19964C67.8525 8.15108 67.2185 8.63192 66.3187 8.58417C65.3609 8.53302 64.836 8.05559 64.7848 6.9541C64.6008 3.30521 64.5599 3.30862 60.8855 3.30862C59.4369 3.30862 57.9882 3.30862 56.2226 3.30862ZM26.473 18.31C19.3186 18.31 12.1641 18.3339 5.00959 18.2896C3.75866 18.2827 3.31215 18.6715 3.32919 19.9469C3.38714 24.4347 3.36328 28.9225 3.34283 33.4103C3.33942 34.2288 3.48257 34.9142 4.4131 35.0609C5.26182 35.1939 5.35385 34.5152 5.60608 33.9219C7.2115 30.1638 10.6302 27.804 14.2637 28.0086C18.0472 28.22 20.8285 30.2832 22.3521 33.7445C22.8839 34.9517 23.5656 35.1495 24.6802 35.1427C29.3942 35.1086 34.1081 35.0302 38.8187 35.1802C40.6048 35.2382 41.4126 34.5664 42.067 33.0284C43.4713 29.7239 46.3106 28.1586 49.6783 28.0359C53.3901 27.8995 56.4987 29.6694 57.9541 33.1136C58.7858 35.0847 59.88 35.1802 61.5331 35.1563C63.1351 35.1359 63.7998 34.4368 63.7827 32.8817C63.7555 30.3821 63.7418 27.8824 63.7929 25.3827C63.8134 24.3972 63.5271 23.9027 62.525 23.5412C59.2528 22.3545 56.0692 20.9154 52.78 19.773C50.7792 19.0807 48.8364 18.2179 46.5697 18.2657C39.8754 18.3953 33.1742 18.31 26.473 18.31ZM62.3 19.8514C59.488 15.2647 57.4292 10.7394 54.515 6.72562C53.5878 5.45021 52.204 4.59426 50.6804 4.07932C49.8078 3.78263 49.3204 3.97019 49.3442 5.07509C49.4022 8.02149 49.3579 10.9713 49.3715 13.9177C49.3749 14.4667 49.2658 15.0772 50.0225 15.3057C54.0446 16.5333 57.8996 18.2316 62.3 19.8514ZM50.0225 42.4951C53.7446 42.4985 55.6227 39.4873 55.5511 36.9194C55.4762 34.2936 53.6833 31.5756 50.0259 31.5552C46.4504 31.5347 44.286 34.4675 44.3167 36.9978C44.3473 39.6441 46.2766 42.4303 50.0225 42.4951ZM19.4754 37.0729C19.9355 34.1128 16.711 31.429 14.1819 31.562C10.8893 31.7359 8.53741 33.8127 8.44879 36.9058C8.36358 39.8181 10.6882 42.5019 13.9467 42.5258C17.1576 42.5496 19.5094 40.4285 19.4754 37.0729ZM14.2603 8.97975C14.2603 10.453 14.2876 11.9262 14.2501 13.3994C14.2262 14.3406 14.6318 14.7327 15.5624 14.7225C17.5461 14.6986 19.5265 14.685 21.5102 14.7361C22.3726 14.7566 22.5533 14.3713 22.5464 13.6108C22.5192 10.6064 22.5158 7.60204 22.543 4.60108C22.5533 3.64963 22.151 3.28474 21.2205 3.3018C19.3526 3.3359 17.4814 3.34613 15.6135 3.29838C14.5603 3.2711 14.2126 3.73489 14.2467 4.73066C14.291 6.14248 14.2569 7.56112 14.2603 8.97975ZM34.1559 9.09229C34.1559 7.67365 34.1218 6.25502 34.1661 4.83638C34.2002 3.78604 33.8729 3.25746 32.7175 3.29497C30.9041 3.35636 29.0874 3.35636 27.2741 3.29497C26.122 3.25746 25.8118 3.7724 25.8288 4.83297C25.8731 7.61227 25.8731 10.395 25.8288 13.1743C25.8118 14.2246 26.122 14.7668 27.2672 14.7361C29.0806 14.6884 30.8973 14.685 32.7106 14.7327C33.8457 14.7634 34.2002 14.2349 34.1627 13.1811C34.1184 11.817 34.1559 10.453 34.1559 9.09229ZM46.0516 9.00022C46.0516 7.58158 46.0209 6.16294 46.0618 4.74771C46.0925 3.76899 45.7789 3.2711 44.712 3.29838C42.8442 3.34613 40.9695 3.34613 39.1016 3.29838C38.0211 3.2711 37.7484 3.78945 37.7621 4.75794C37.7962 7.59181 37.7962 10.4291 37.7621 13.2629C37.7518 14.2383 38.0484 14.7532 39.1118 14.7293C40.9797 14.6884 42.851 14.6884 44.7223 14.7259C45.7857 14.7464 46.0925 14.2246 46.0652 13.2527C46.0209 11.8341 46.0516 10.4154 46.0516 9.00022ZM10.6098 9.00704C10.6098 8.66602 10.6098 8.32841 10.6098 7.98739C10.6098 3.15516 10.6098 3.17221 5.72538 3.29497C4.22904 3.33249 3.32578 3.96337 3.30874 5.49113C3.28147 8.19882 3.34283 10.9065 3.35305 13.6142C3.35646 14.4224 3.78934 14.7089 4.52899 14.7089C6.05601 14.7055 7.58303 14.6816 9.11004 14.7293C10.1803 14.7634 10.6677 14.3713 10.62 13.2493C10.5621 11.8375 10.6098 10.4223 10.6098 9.00704Z" fill="#E42B27"/>
</g>
<defs>
<clipPath id="clip0">
<rect width="68" height="46" fill="white"/>
</clipPath>
</defs>
</svg>
